<?xml version="1.0" standalone="no"?>
<!DOCTYPE svg PUBLIC "-//W3C//DTD SVG 20010904//EN"
 "http://www.w3.org/TR/2001/REC-SVG-20010904/DTD/svg10.dtd">
<svg version="1.0" xmlns="http://www.w3.org/2000/svg"
 width="16.000000pt" height="16.000000pt" viewBox="0 0 16.000000 16.000000"
 preserveAspectRatio="xMidYMid meet">
<metadata>
Created by potrace 1.11, written by Peter Selinger 2001-2013
</metadata>
<g transform="translate(0.000000,16.000000) scale(0.007273,-0.007273)"
fill="#000000" stroke="none">
<path d="M985 1794 c-41 -87 -75 -158 -75 -159 0 -2 -34 -73 -75 -160 -41 -86
-75 -158 -75 -160 0 -2 -34 -74 -75 -160 -41 -87 -75 -159 -75 -160 0 -2 -33
-72 -74 -157 -40 -84 -96 -200 -124 -258 -83 -173 -122 -216 -209 -228 l-48
-7 0 -40 0 -40 277 -2 c208 -2 277 1 281 10 2 7 2 26 0 42 -5 30 -5 30 -71 33
-87 4 -117 24 -116 78 0 36 95 277 130 331 l14 23 329 0 c251 0 331 -3 339
-12 5 -7 21 -40 35 -73 14 -33 42 -96 63 -139 72 -154 58 -198 -65 -210 l-72
-7 3 -37 3 -37 335 -3 c184 -2 345 0 357 3 18 4 23 12 23 39 0 33 0 33 -56 39
-98 10 -134 51 -231 262 -51 112 -69 149 -175 380 -33 72 -72 155 -85 185 -14
30 -56 120 -93 200 -37 80 -100 217 -140 305 -117 258 -126 275 -155 275 -23
0 -33 -16 -100 -156z m49 -331 c56 -110 217 -488 214 -506 -3 -22 -4 -22 -249
-25 -217 -2 -247 0 -253 13 -3 9 17 66 45 128 83 184 182 391 192 405 15 20
36 14 51 -15z"/>
</g>
</svg>
